<svg xmlns="http://www.w3.org/2000/svg" viewBox="0 0 512 512" width="512" height="512">
  <rect width="512" height="512" rx="112" fill="#1B1F3B"/>
  <polygon points="256,96  352,256  256,416  160,256" fill="none" stroke="#FFFFFF" stroke-width="12"/>
  <line x1="256" y1="256" x2="256" y2="416" stroke="#FFFFFF" stroke-width="7"/>
  <polygon points="256,96  352,256  256,256  160,256" fill="#4B6EF5"/>
  <polygon points="160,256  256,256  256,416" fill="#FFFFFF" opacity="0.9"/>
  <polygon points="256,256  352,256  256,416" fill="#FFFFFF" opacity="0.55"/>
  <line x1="256" y1="276" x2="256" y2="416" stroke="#1B1F3B" stroke-width="8"/>
  <ellipse cx="256" cy="432" rx="13" ry="18" fill="#4B6EF5"/>
  <circle cx="256" cy="76" r="16" fill="#F5C542"/>
  <line x1="394" y1="114" x2="420" y2="88" stroke="#F5C542" stroke-width="7" stroke-linecap="round"/>
  <line x1="410" y1="148" x2="440" y2="138" stroke="#F5C542" stroke-width="5" stroke-linecap="round" opacity="0.7"/>
  <line x1="376" y1="86" x2="388" y2="58" stroke="#F5C542" stroke-width="4" stroke-linecap="round" opacity="0.5"/>
</svg>